 <svg
      data-v-0dd9719b=""
      version="1.0"
      xmlns="http://www.w3.org/2000/svg"
      xmlns:xlink="http://www.w3.org/1999/xlink"
      width="100%"
      height="100%"
      viewBox="0 20 675.000000 310.000000"
      preserveAspectRatio="xMidYMid meet"
      color-interpolation-filters="sRGB"
      style="margin: auto"
    >
      <g
        data-v-0dd9719b=""
        fill="#27c3c4"
        class="pmspacesvg"
        transform="translate(55.090003967285156,93.41420936584473) scale(2.5)"
      >
        <!---->
        <polyline
          data-gra="graph-name"
          stroke="#27c3c4"
          stroke-width="20"
          fill-opacity="0"
          stroke-opacity="0.5"
          points="0,63.17158126831055 0,0 229.8199920654297,0"
        ></polyline>
        <polyline
          data-gra="graph-name"
          stroke="#27c3c4"
          stroke-width="20"
          fill-opacity="0"
          stroke-opacity="0.5"
          points="0,63.17158126831055 229.8199920654297,63.17158126831055 229.8199920654297,0"
        ></polyline>
        <g mask="url(#22536956-a1e6-4b5a-9c39-923b23223ea9)">
          <g>
            <rect
              data-gra="graph-name-bg"
              stroke-width="2"
              class="i-icon-bg"
              x="0"
              y="0"
              width="229.8199920654297"
              height="63.17158126831055"
            ></rect>
          </g>
          <g transform="translate(10,10)">
            <g data-gra="path-name" fill-rule="" class="tp-name" fill="#ffffff">
              <g transform="scale(1)">
                <g>
                  <path
                    d="M27.28-27.94L27.28-30.91C27.28-39.44 22.66-42.52 15.23-42.52L3.85-42.46 3.85 0.06 9.07 0.06 9.07-15.68 13.86-15.68 22.39 0 28.55 0 19.36-16C25.25-17.16 27.28-21.18 27.28-27.94ZM15.23-37.51C19.91-37.23 22.05-36.74 22.05-30.91L22.05-27.94C22.05-22.11 19.91-20.68 15.23-20.68L9.07-20.68 9.07-37.51ZM53.73-21.73C53.73-29.54 49.55-32.51 42.52-32.51 35.7-32.51 31.95-29.48 32.17-22.33L37.29-22.33C37.23-26.68 39.33-27.72 42.35-27.72 47.19-27.72 48.45-25.36 48.45-21.73L48.45-18.59C45.92-18.54 43.23-18.48 40.7-18.09 34.1-17.16 30.25-13.09 30.8-7.42 31.18-3.63 33 0.28 40.37 0.28 44.27 0.28 47.41-1.98 48.56-4.34L49 0 53.73 0ZM48.56-14.24C48.4-8.96 46.7-4.73 40.92-4.73 38.55-4.73 36.3-5.55 36.08-8.09 35.7-11.22 37.56-12.93 41.14-13.7 43.89-14.3 47.08-14.24 48.56-14.24ZM66.39 0L66.39-31.96 61.16-31.96 61.16 0ZM60.67-39.55C60.67-35.37 66.99-35.64 66.99-39.55 66.99-43.73 60.67-43.56 60.67-39.55ZM74.75 0L80.03 0 80.03-20.96C80.03-25.52 83.16-27.77 87.12-27.77 90.92-27.77 93.39-25.46 93.39-20.9L93.39 0 98.67 0 98.67-20.96C98.67-29.54 95.09-32.56 88-32.56 84.87-32.56 81.68-31.9 79.75-28.77L79.42-32.17 74.75-32.17ZM128.75-37.56L128.75-42.41 105.98-42.41 105.98 0.06 111.21 0.06 111.21-19.69 126.44-19.69 126.44-24.59 111.21-24.59 111.21-37.56ZM134.09-8.36C134.09-1.59 136.23 0 142.5 0L142.5-5.17C140.19-5.17 139.2-5.83 139.2-8.42L139.2-42.46 134.09-42.46ZM158.95-4.01C154.27-4.01 152.13-5.88 152.13-11.71L152.13-20.9C152.13-26.73 154.6-27.89 158.95-27.89 163.29-27.89 165.77-26.73 165.77-20.9L165.77-11.71C165.77-5.88 163.79-4.01 158.95-4.01ZM158.95 0.55C167.47 0.55 170.99-2.97 170.99-11.71L170.99-20.9C170.99-29.43 166.37-32.56 158.95-32.56 151.52-32.56 146.9-29.43 146.9-20.9L146.9-11.71C146.9-2.97 150.26 0.55 158.95 0.55ZM204.87-21.45C203.44-16.61 202.62-11.33 201.79-7.26 200.97-11.44 200.14-15.68 198.66-21.56L195.63-32.17 191.78-32.17 188.81-21.56C187.33-15.68 186.45-11.44 185.62-7.26 184.8-11.33 183.97-16.61 182.54-21.45L179.24-32.17 173.74-32.17 182.98 0.06 188.21 0.06 190.79-9.19 193.71-21.84 196.57-9.35 199.21 0.06 204.43 0.06 213.67-32.17 208.17-32.17Z"
                    transform="translate(-3.8499999046325684, 42.62158203125)"
                  ></path>
                </g>
              </g>
            </g>
          </g>
        </g>
      </g>

      <defs v-gra="od"></defs>
    </svg>